<svg xmlns="http://www.w3.org/2000/svg" viewBox="0 0 64 64" width="64" height="64">
  <defs>
    <linearGradient id="g" x1="0" y1="0" x2="1" y2="1">
      <stop offset="0" stop-color="#7c3aed"/>
      <stop offset="1" stop-color="#4f46e5"/>
    </linearGradient>
  </defs>
  <rect x="2" y="2" width="60" height="60" rx="16" fill="url(#g)"/>
  <path d="M16 18h32a4 4 0 0 1 4 4v16a4 4 0 0 1-4 4H30l-9 8v-8h-5a4 4 0 0 1-4-4V22a4 4 0 0 1 4-4z" fill="#ffffff" opacity="0.95"/>
  <path d="M32 38c-4.2-3.1-7-5.3-7-8.3 0-1.9 1.5-3.4 3.4-3.4 1.4 0 2.7.8 3.6 2 0.9-1.2 2.2-2 3.6-2 1.9 0 3.4 1.5 3.4 3.4 0 3-2.8 5.2-7 8.3z" fill="#ec4899"/>
</svg>
